<svg width="87" height="87" viewBox="0 0 87 87" fill="none" xmlns="http://www.w3.org/2000/svg">
<circle cx="43.5" cy="43.5" r="43.5" fill="#05C805"/>
<path fill-rule="evenodd" clip-rule="evenodd" d="M60.8739 26.1076C58.6071 23.8398 55.9142 22.0427 52.9501 20.8198C49.986 19.5968 46.8093 18.9723 43.6028 18.982C30.1463 18.982 19.192 29.8817 19.1865 43.2813C19.1805 47.548 20.3052 51.7401 22.4461 55.4309L18.9818 68.0183L31.925 64.6394C35.5077 66.5803 39.5183 67.5961 43.593 67.5947H43.6028C57.0583 67.5947 68.0115 56.694 68.0181 43.2955C68.0263 40.1 67.3988 36.9348 66.1723 33.984C64.9458 31.0332 63.1448 28.3559 60.8739 26.1076ZM43.6028 63.4934H43.5941C39.9617 63.4945 36.3953 62.5224 33.2658 60.6782L32.5248 60.2404L24.8443 62.2456L26.8944 54.7927L26.4117 54.0266C24.3806 50.8109 23.3045 47.0846 23.3086 43.2813C23.3086 32.1463 32.4164 23.0866 43.6105 23.0866C48.9804 23.0771 54.1342 25.2008 57.9384 28.9908C61.7426 32.7808 63.8855 37.9267 63.896 43.2966C63.8916 54.4326 54.7882 63.4934 43.6028 63.4934ZM54.7334 48.3677C54.1238 48.0634 51.1214 46.5945 50.5653 46.392C50.0093 46.1895 49.5988 46.0877 49.1928 46.6963C48.7867 47.3049 47.6166 48.6665 47.2609 49.077C46.9051 49.4874 46.5494 49.5323 45.9397 49.228C45.3301 48.9237 43.3631 48.2834 41.0328 46.2147C39.2191 44.6046 37.9954 42.6169 37.6397 42.0094C37.284 41.4019 37.6014 41.0724 37.9068 40.7703C38.1815 40.4978 38.5164 40.0611 38.8218 39.7064C39.1272 39.3518 39.229 39.0979 39.4315 38.6929C39.634 38.2879 39.5333 37.9332 39.3811 37.6301C39.229 37.3269 38.0085 34.3376 37.5007 33.1216C37.0048 31.9372 36.5024 32.0981 36.1281 32.0795C35.7724 32.062 35.3619 32.0577 34.958 32.0577C34.6492 32.0657 34.3455 32.1373 34.0656 32.268C33.7857 32.3987 33.5358 32.5857 33.3315 32.8173C32.7722 33.4258 31.196 34.8969 31.196 37.8829C31.196 40.8689 33.3851 43.7585 33.6872 44.1635C33.9893 44.5685 37.9888 50.7013 44.1085 53.3315C45.2449 53.8182 46.406 54.2449 47.587 54.6099C49.0483 55.0719 50.3782 55.0073 51.4289 54.8508C52.6012 54.6767 55.041 53.3819 55.5478 51.9633C56.0546 50.5448 56.0557 49.3298 55.9035 49.077C55.7514 48.8241 55.3442 48.6709 54.7334 48.3677Z" fill="white"/>
</svg>
